<svg xmlns="http://www.w3.org/2000/svg" width="500" height="500" viewBox="0 0 500 500">
<g>
<path d="M 226.98 304.28 C188.22,264.63 188.00,264.39 188.00,260.98 C188.00,258.38 189.31,256.44 195.09,250.48 C202.68,242.65 206.35,240.44 209.70,241.71 C210.85,242.14 218.66,249.20 227.07,257.39 L 242.36 272.29 L 245.33 268.89 C252.11,261.18 255.98,256.69 265.16,245.87 C270.48,239.62 287.70,219.43 303.43,201.00 C329.85,170.06 331.86,167.45 329.74,166.75 C328.48,166.33 322.96,165.15 317.47,164.13 C310.55,162.85 308.27,162.11 310.00,161.71 C311.38,161.40 317.44,160.17 323.48,158.98 C329.53,157.79 335.26,156.39 336.24,155.87 C338.71,154.55 340.44,149.92 342.37,139.48 C345.35,123.33 345.44,123.24 347.40,134.50 C350.22,150.70 351.56,154.58 354.74,155.86 C358.73,157.45 368.12,159.76 373.69,160.50 C381.95,161.61 381.77,162.16 372.50,164.12 C358.45,167.08 353.15,168.86 352.01,170.98 C351.11,172.67 349.26,180.86 346.47,195.50 L 345.71 199.50 L 342.50 186.91 L 331.43 202.70 C310.46,232.63 293.68,256.52 288.03,264.50 C284.91,268.90 277.67,279.18 271.93,287.35 C250.60,317.72 249.98,318.46 245.47,318.80 C241.52,319.09 241.29,318.90 226.98,304.28 Z" fill="rgba(89,112,202,1)"/>
<path d="M 241.25 366.92 C225.65,365.70 213.43,362.27 199.66,355.23 C169.70,339.90 149.13,313.46 141.93,281.00 C139.52,270.14 139.31,247.45 141.52,236.82 C148.61,202.72 169.34,175.82 200.61,160.16 C216.69,152.11 230.98,148.76 249.50,148.69 C266.06,148.63 283.51,152.08 293.90,157.45 C296.58,158.84 296.83,159.29 295.80,160.94 C293.44,164.73 298.56,168.06 309.79,170.05 C313.81,170.76 317.30,171.68 317.56,172.10 C317.97,172.76 305.36,188.00 304.40,188.00 C304.20,188.00 301.48,186.36 298.35,184.36 C290.69,179.46 281.69,175.47 272.29,172.81 C261.13,169.66 239.05,169.69 227.50,172.87 C177.69,186.62 149.38,238.08 165.53,285.50 C174.69,312.37 197.63,334.29 224.73,342.08 C256.75,351.27 291.05,342.16 314.12,318.34 C338.97,292.67 345.59,257.93 332.08,224.12 L 329.93 218.75 L 334.08 212.37 C336.37,208.87 338.36,206.00 338.52,206.00 C338.68,206.00 340.00,208.02 341.45,210.50 C344.35,215.45 346.32,216.14 348.10,212.82 C349.21,210.74 349.32,210.72 350.60,212.46 C352.59,215.18 356.80,228.45 358.50,237.35 C360.40,247.29 360.44,268.52 358.57,278.28 C353.46,304.98 338.72,328.51 316.70,345.10 C300.76,357.11 280.95,364.92 262.37,366.51 C258.59,366.83 254.38,367.21 253.00,367.36 C251.62,367.51 246.34,367.31 241.25,366.92 ZM 124.84 349.82 C120.47,348.65 113.73,343.12 110.54,338.07 C109.28,336.07 106.59,329.04 104.57,322.46 C102.55,315.88 100.50,309.38 100.02,308.00 C99.53,306.62 97.69,300.77 95.94,295.00 C94.18,289.23 91.95,282.92 90.97,281.00 C87.92,274.99 82.09,270.86 74.72,269.47 L 71.00 268.78 L 71.00 257.89 C71.00,247.04 71.01,247.00 73.42,247.00 C81.48,247.00 90.78,238.81 93.45,229.36 C100.60,204.10 108.39,178.69 110.22,174.67 C114.59,165.06 121.61,161.19 136.29,160.29 L 146.07 159.69 L 145.79 170.60 L 145.50 181.50 L 140.39 182.01 C132.26,182.83 133.27,180.93 123.06,214.75 C121.44,220.11 118.96,228.53 117.56,233.45 C114.19,245.24 111.17,250.85 106.20,254.50 C103.96,256.15 102.11,257.73 102.09,258.00 C102.07,258.27 103.54,259.60 105.36,260.95 C112.41,266.18 113.04,267.69 127.46,314.26 C131.58,327.56 132.84,328.99 141.06,329.78 L 146.00 330.25 L 146.00 340.63 L 146.00 351.00 L 137.25 350.90 C132.44,350.84 126.85,350.35 124.84,349.82 ZM 354.00 340.64 L 354.00 330.28 L 359.60 329.70 C366.30,329.01 368.33,327.39 370.30,321.18 C375.69,304.22 378.17,296.26 380.96,287.00 C386.26,269.43 388.27,265.55 394.45,260.92 L 397.90 258.34 L 393.56 254.71 C391.17,252.72 388.25,249.08 387.06,246.63 C385.30,242.99 380.71,228.41 376.00,211.50 C375.23,208.75 374.13,205.12 369.54,190.25 C367.81,184.64 365.68,182.65 360.16,181.50 C357.35,180.91 356.91,180.46 357.40,178.65 C357.71,177.47 357.98,176.20 357.99,175.83 C358.00,175.01 362.49,173.64 370.50,172.01 C373.80,171.33 377.80,170.38 379.40,169.89 C387.58,167.38 388.87,169.66 399.44,205.33 C404.14,221.19 408.77,235.49 409.72,237.11 C412.14,241.19 417.67,244.78 423.81,246.24 L 429.00 247.47 L 429.00 258.22 L 429.00 268.98 L 425.13 269.60 C423.00,269.94 419.55,271.18 417.47,272.36 C410.22,276.47 408.65,279.64 399.91,308.00 C391.25,336.04 388.75,341.42 382.18,346.13 C377.16,349.73 372.00,350.99 362.25,350.99 L 354.00 351.00 L 354.00 340.64 Z" fill="rgba(42,57,70,1)"/>
</g>
</svg>